<svg version="1.1" id="Layer_1" xmlns="http://www.w3.org/2000/svg" xmlns:xlink="http://www.w3.org/1999/xlink" x="0px" y="0px"
	 width="100%" viewBox="0 0 496 496" enable-background="new 0 0 496 496" xml:space="preserve">
<path fill="#000000" opacity="1.000000" stroke="none" 
	d="
M296.445007,275.243103 
	C297.506348,276.217590 297.517639,277.124237 296.348419,277.135986 
	C287.955994,277.220337 279.562286,277.181091 270.434265,277.181091 
	C272.408752,273.724731 276.800476,275.560944 277.624725,271.917419 
	C275.030121,270.549500 272.765533,270.390930 270.084045,272.403015 
	C261.046906,279.184052 245.864761,278.510406 238.643051,269.790283 
	C238.362976,269.452118 237.811066,269.339050 236.949890,268.897644 
	C232.085556,276.505920 225.113541,281.154633 216.232010,282.886414 
	C203.883987,285.294098 193.642502,279.816376 190.308060,268.986176 
	C186.746719,257.419006 192.777969,246.193512 203.790314,244.384384 
	C209.829498,243.392242 214.910599,245.327667 218.318375,251.080200 
	C219.247025,246.438034 218.419296,242.997940 215.045013,239.433517 
	C209.767410,233.858505 210.373184,223.149612 215.929443,216.320068 
	C220.220718,211.045349 218.882523,205.346848 217.912476,199.731400 
	C217.274429,196.037735 213.216660,196.099304 210.507477,193.874130 
	C216.466080,193.874130 222.442429,193.605560 228.375168,193.997345 
	C230.997314,194.170517 231.623627,197.300064 232.279785,199.351715 
	C234.234268,205.462997 238.127686,207.644012 244.337753,206.721298 
	C246.938354,206.334885 249.621643,206.723480 252.259872,207.340927 
	C263.389435,209.945618 271.496429,205.242325 277.724365,196.419403 
	C280.204254,192.906219 284.476868,192.247284 287.628143,192.349854 
	C290.552521,192.445038 293.993561,193.371414 298.581818,194.377716 
	C288.836456,197.178452 289.336395,204.208344 289.331116,210.976547 
	C289.316803,229.294357 289.341492,247.612198 289.315521,265.929993 
	C289.308716,270.712006 290.370453,274.605072 296.445007,275.243103 
M234.329666,264.238800 
	C234.142807,263.607239 233.992584,262.962067 233.763596,262.346161 
	C230.549973,253.702820 229.722031,245.469559 237.946701,238.896301 
	C239.108261,237.967987 239.196793,236.997971 238.636292,235.860382 
	C234.631195,227.731644 230.595352,219.618057 226.577271,211.515732 
	C223.600449,212.578827 221.093613,213.575729 221.350388,216.329132 
	C222.134796,224.740692 218.844193,233.630859 223.824997,242.119293 
	C223.305481,242.889420 221.407867,243.615295 221.398590,245.488205 
	C221.359070,253.459366 221.297028,261.433167 221.476120,269.400787 
	C221.522842,271.478882 223.121857,273.081482 225.039780,273.871277 
	C227.110825,274.724091 227.879623,272.652802 229.010422,271.589630 
	C231.076706,269.646942 232.807526,267.417694 234.329666,264.238800 
M215.613617,258.823547 
	C216.041885,251.360413 214.216675,247.730515 209.077011,246.649551 
	C204.267715,245.638077 199.893555,246.541534 196.306488,250.321335 
	C190.147507,256.811249 189.944107,267.795349 195.982834,274.925629 
	C201.664597,281.634399 212.698074,282.809082 219.993546,277.481934 
	C217.074860,276.633087 213.831070,278.075012 210.720398,276.448669 
	C218.870300,270.740723 219.093201,270.355560 218.114151,264.017761 
	C215.584839,267.719971 212.782806,270.884064 206.160477,269.824127 
	C210.945984,266.686981 214.191956,263.944427 215.613617,258.823547 
M260.267639,245.705154 
	C257.406250,243.795959 257.430328,246.789352 256.631775,247.991806 
	C254.496628,251.206848 253.840271,255.333267 250.891312,258.047058 
	C248.309448,256.782593 248.256821,253.921814 246.040222,252.345139 
	C244.266495,255.768387 242.726074,259.230408 240.743164,262.417114 
	C239.090073,265.073792 239.668045,266.919403 241.702179,268.945465 
	C248.773193,275.988403 261.367554,276.642365 269.070343,270.261383 
	C270.219940,269.309052 271.524597,268.414703 270.691223,266.560455 
	C267.586700,259.652740 266.237091,251.885101 260.267639,245.705154 
M278.998535,234.500000 
	C278.978607,227.683487 278.984894,220.866714 278.920074,214.050629 
	C278.904205,212.385452 278.861420,210.554626 276.494171,210.425812 
	C274.435638,210.313782 273.531342,211.553207 273.160461,213.397415 
	C272.931732,214.534714 272.582520,215.647949 272.359009,216.786072 
	C270.481598,226.345871 270.942200,236.027649 271.583496,245.610855 
	C271.977203,251.494492 272.064453,257.782990 275.899567,263.345551 
	C278.394196,261.143005 278.995667,258.686768 278.991241,255.949432 
	C278.980255,249.132980 278.996094,242.316483 278.998535,234.500000 
M241.171585,216.484131 
	C243.854385,221.828491 246.537186,227.172852 249.724152,233.521545 
	C254.067230,225.060699 257.646820,218.087234 261.505005,210.570999 
	C253.166245,209.957596 245.706451,207.861969 237.337646,208.980469 
	C238.759186,211.749573 239.807053,213.790771 241.171585,216.484131 
M265.754120,210.811600 
	C258.916656,217.557907 256.295837,226.580704 252.690125,235.066727 
	C252.149734,236.338531 252.655579,237.278793 253.969589,237.833694 
	C255.299240,238.395203 256.610260,238.739166 257.395020,237.163986 
	C261.156433,229.614197 264.918091,222.063232 268.544067,214.448120 
	C269.476562,212.489716 268.972992,210.852036 265.754120,210.811600 
M239.787964,241.617126 
	C234.573196,246.860123 233.471008,254.920395 237.638168,259.914490 
	C239.254364,256.854553 240.725632,253.908539 242.343597,251.045425 
	C244.469055,247.284271 243.961029,244.132309 239.787964,241.617126 
M263.254578,233.933701 
	C259.317078,242.330704 259.317078,242.330704 266.211700,248.198746 
	C265.165527,242.474243 266.094513,236.603256 265.454834,229.947189 
	C264.513031,231.647858 264.043701,232.495300 263.254578,233.933701 
M217.186020,234.413132 
	C217.557755,234.902023 218.330154,236.491440 218.458908,234.765717 
	C218.823898,229.873489 218.586777,224.936356 218.586777,218.713867 
	C215.591904,224.502197 214.739334,229.064270 217.186020,234.413132 
M223.757339,205.815796 
	C222.959579,204.893356 223.050476,203.302597 221.325226,202.741821 
	C221.405075,205.240295 220.826614,207.611282 221.900635,210.079865 
	C224.470947,209.719299 225.070648,208.523804 223.757339,205.815796 
z"/>
<path fill="#000000" opacity="1.000000" stroke="none" 
	d="
M240.900284,339.088074 
	C240.910431,337.445496 240.871185,336.278809 240.942444,335.118927 
	C241.036835,333.582672 241.246033,332.068420 243.214066,331.790314 
	C245.230225,331.505402 246.795883,331.964203 247.555695,334.125854 
	C248.474686,336.740387 249.517487,339.311401 250.714035,342.444061 
	C253.021042,339.714355 253.178467,336.777618 254.275497,334.282562 
	C255.160995,332.268616 256.458984,331.472321 258.539490,331.771606 
	C260.788574,332.095123 260.861908,333.860901 260.898224,335.538483 
	C260.973785,339.028717 261.032501,342.522308 260.957672,346.011505 
	C260.920319,347.752441 261.237488,350.117645 258.525879,350.053986 
	C255.892761,349.992126 256.323761,347.579834 256.108307,345.881317 
	C255.970901,344.798004 256.181396,343.670563 256.249390,342.288940 
	C253.739395,344.739105 254.983032,349.981598 250.788116,350.001984 
	C246.750244,350.021637 247.917984,345.018524 245.438400,342.323700 
	C245.438400,344.492096 245.502747,346.195099 245.417252,347.890533 
	C245.353409,349.156372 244.813721,350.139862 243.309601,350.152557 
	C241.878357,350.164673 241.105377,349.348267 241.047409,348.038574 
	C240.922546,345.218109 240.940536,342.391266 240.900284,339.088074 
z"/>
<path fill="#000000" opacity="1.000000" stroke="none" 
	d="
M242.036850,299.983643 
	C242.820801,297.317657 244.309586,296.322723 246.655411,296.811188 
	C249.144424,297.329498 248.860748,299.402405 248.898514,301.175354 
	C248.972778,304.661591 248.978882,308.150970 248.923523,311.637634 
	C248.896576,313.334991 248.737366,315.191742 246.352951,315.055603 
	C244.282227,314.937317 244.308365,313.079559 244.196091,311.683929 
	C244.067337,310.083466 244.336151,308.451080 243.966660,306.710602 
	C243.227890,308.678192 242.515335,310.656189 241.740891,312.609650 
	C241.250259,313.847198 240.744873,315.068451 239.082962,315.196411 
	C237.110519,315.348297 236.540405,313.893921 235.951263,312.544006 
	C235.163834,310.739807 234.520721,308.872620 233.430069,306.026154 
	C233.430069,308.953979 233.502701,310.835602 233.403717,312.708130 
	C233.341095,313.892517 233.004959,315.050140 231.455307,315.125885 
	C229.744293,315.209534 229.001282,314.169128 228.974014,312.680328 
	C228.894989,308.365112 228.886627,304.047302 228.940704,299.731598 
	C228.961349,298.083466 229.667007,296.874146 231.578674,296.749573 
	C233.411819,296.630096 234.772552,297.033600 235.452087,299.013702 
	C236.360413,301.660461 237.479523,304.234863 238.715836,307.366486 
	C240.698212,305.055359 240.921646,302.521393 242.036850,299.983643 
z"/>
<path fill="#000000" opacity="1.000000" stroke="none" 
	d="
M210.152679,312.993896 
	C207.712204,316.554047 206.125992,315.516449 205.834244,312.257721 
	C205.479767,308.298340 205.726593,304.283661 205.744385,300.293030 
	C205.752197,298.541077 205.984360,296.927612 208.279968,296.751709 
	C210.131042,296.609833 211.539337,297.103699 212.223129,298.998718 
	C213.231552,301.793457 214.280502,304.573547 215.750809,308.544464 
	C217.076324,304.743927 218.043091,302.017883 218.976532,299.280487 
	C219.672119,297.240692 221.066177,296.424255 223.187653,296.676300 
	C225.667938,296.970978 225.279526,298.883850 225.305954,300.468292 
	C225.366913,304.125671 225.377121,307.786072 225.293533,311.442596 
	C225.261536,312.841675 225.666351,314.798920 223.555450,315.011536 
	C221.204880,315.248260 221.074799,313.271790 220.926224,311.605347 
	C220.823837,310.456909 220.906555,309.291931 220.906555,307.899170 
	C218.381729,310.051910 219.651840,315.177887 215.566483,315.026581 
	C211.819656,314.887848 212.754929,310.265228 210.511154,307.706726 
	C210.403839,309.554199 210.315598,311.073273 210.152679,312.993896 
z"/>
<path fill="#000000" opacity="1.000000" stroke="none" 
	d="
M139.934067,308.946594 
	C139.471146,310.134155 139.146576,311.077606 138.755035,311.992371 
	C138.113419,313.491394 137.728149,315.310822 135.512070,315.177338 
	C133.641327,315.064667 133.215652,313.520905 132.657501,312.135498 
	C132.105484,310.765350 131.551514,309.395966 130.954681,307.917999 
	C130.656601,308.239319 130.359818,308.408447 130.322601,308.622650 
	C129.931061,310.876312 131.466583,314.723267 128.215866,314.825714 
	C124.127388,314.954620 126.058838,310.842987 125.783211,308.547455 
	C125.468674,305.927917 125.677193,303.239197 125.743973,300.582642 
	C125.784958,298.952118 125.615211,297.136047 127.971359,296.789948 
	C130.304855,296.447174 131.743835,297.284943 132.478439,299.609070 
	C133.321671,302.276917 134.392166,304.872955 135.812088,308.711731 
	C137.095810,304.893005 138.003098,302.168274 138.928574,299.449707 
	C139.599579,297.478638 140.860413,296.481903 143.065552,296.761597 
	C145.492035,297.069366 145.261765,298.893372 145.302551,300.507355 
	C145.373871,303.329834 145.523636,306.172455 145.272675,308.973694 
	C145.085999,311.057404 146.612778,314.629486 143.509842,314.832672 
	C139.826935,315.073883 141.290909,311.276611 140.867966,309.078278 
	C140.837036,308.917511 140.903931,308.728699 140.847046,308.583618 
	C140.450851,307.573334 140.274368,308.364685 139.934067,308.946594 
z"/>
<path fill="#000000" opacity="1.000000" stroke="none" 
	d="
M283.956909,312.967621 
	C280.257446,316.221222 276.175964,315.309082 272.262848,315.178711 
	C270.345856,315.114868 269.901428,313.592468 269.872253,311.999634 
	C269.820740,309.186371 269.684479,306.358856 269.896637,303.561035 
	C270.108063,300.772430 268.396973,296.942383 273.695831,296.622253 
	C280.902466,296.186890 285.306519,298.050842 286.094849,302.797546 
	C286.659973,306.200317 286.963684,309.778320 283.956909,312.967621 
M281.353241,303.407959 
	C280.313477,301.536774 278.813202,300.017090 276.603699,300.609222 
	C274.134186,301.271057 274.594238,303.706451 274.423126,305.631134 
	C274.364624,306.288849 274.393890,306.958527 274.432220,307.619843 
	C274.526062,309.239105 274.200012,311.272156 276.533356,311.468262 
	C278.683563,311.648926 280.532867,310.549377 281.276123,308.531403 
	C281.763641,307.207825 281.495331,305.605865 281.353241,303.407959 
z"/>
<path fill="#000000" opacity="1.000000" stroke="none" 
	d="
M172.780090,313.553711 
	C170.617142,315.908539 168.883926,315.637573 168.433670,312.844727 
	C167.716949,308.399200 167.902573,303.877930 168.341660,299.393066 
	C168.480789,297.971893 169.040131,296.804230 170.808426,296.876892 
	C172.252365,296.936218 172.914032,297.834900 173.033508,299.103180 
	C173.241867,301.315094 173.825928,302.953674 176.553162,302.934753 
	C179.358124,302.915283 179.712631,301.107208 179.920761,298.970123 
	C180.049728,297.645996 180.802216,296.855621 182.247772,296.939026 
	C183.744049,297.025330 184.218811,298.025635 184.252243,299.295319 
	C184.348740,302.958771 184.523514,306.628418 184.394226,310.285950 
	C184.332611,312.028839 185.551178,314.832855 182.436310,315.059479 
	C179.380447,315.281799 179.910019,312.543060 179.818985,310.681854 
	C179.709686,308.447571 178.855347,307.325165 176.493774,307.330627 
	C174.149673,307.336029 173.170105,308.428741 173.170013,310.675812 
	C173.169983,311.503387 173.011139,312.330963 172.780090,313.553711 
z"/>
<path fill="#000000" opacity="1.000000" stroke="none" 
	d="
M197.200256,311.696045 
	C194.477936,311.198700 192.250244,311.017853 190.937576,313.784943 
	C190.180893,315.380066 188.684631,315.552094 186.571198,314.502991 
	C187.575378,308.783539 189.467880,303.147491 192.219803,297.993774 
	C193.431717,295.724152 196.937592,295.586029 198.224655,298.530548 
	C200.456390,303.636230 202.039734,309.025330 203.842834,314.147369 
	C199.767776,316.833405 199.104248,313.400909 197.200256,311.696045 
z"/>
<path fill="#000000" opacity="1.000000" stroke="none" 
	d="
M268.936676,346.904114 
	C267.449524,348.888275 266.503143,351.083344 263.050385,349.545624 
	C264.067993,343.822266 266.104706,338.270508 268.750580,333.103424 
	C269.984558,330.693665 273.449005,330.582642 274.737915,333.494629 
	C276.990173,338.583191 278.535706,343.984589 280.414551,349.361237 
	C275.356445,352.079529 273.804840,343.626068 268.936676,346.904114 
z"/>
<path fill="#000000" opacity="1.000000" stroke="none" 
	d="
M300.088135,297.125854 
	C303.581360,295.917450 305.421631,297.105438 306.354553,300.278595 
	C307.746552,305.013397 309.910156,309.527313 310.716553,314.355255 
	C308.686890,315.687286 307.347931,315.376678 306.158844,313.712341 
	C303.544769,310.053467 300.834320,310.354645 298.285645,313.759857 
	C297.339600,315.023895 296.233856,315.574921 294.880127,314.873505 
	C293.537720,314.177917 293.983948,312.870514 294.386444,311.779968 
	C296.165771,306.958923 297.181702,301.851990 300.088135,297.125854 
z"/>
<path fill="#000000" opacity="1.000000" stroke="none" 
	d="
M259.126709,311.355743 
	C255.591736,310.818573 255.563843,317.101624 251.038986,314.369720 
	C252.082169,308.904114 254.186493,303.570160 256.470184,298.378418 
	C257.711914,295.555420 261.792236,296.018158 263.036224,299.096252 
	C265.003784,303.964874 266.562378,308.998810 268.302673,313.987549 
	C266.222229,315.677856 264.671783,315.672943 263.484100,313.683777 
	C262.549591,312.118713 261.413513,311.139954 259.126709,311.355743 
z"/>
<path fill="#000000" opacity="1.000000" stroke="none" 
	d="
M355.722351,311.399536 
	C353.619080,311.312927 352.047577,311.482239 351.076050,313.262207 
	C350.179230,314.905243 348.812134,315.656097 346.261688,314.564880 
	C347.240082,308.675842 349.484436,303.015381 352.279449,297.733917 
	C353.350037,295.710938 356.862762,295.788177 357.993317,298.499969 
	C360.137451,303.642822 362.180603,308.890045 363.212677,314.272339 
	C358.823792,317.196045 358.775452,311.487946 355.722351,311.399536 
z"/>
<path fill="#000000" opacity="1.000000" stroke="none" 
	d="
M224.656586,340.796509 
	C225.481354,338.377960 226.201294,336.339386 226.916412,334.299133 
	C227.537827,332.526215 228.690170,331.645630 230.662048,331.691345 
	C232.408798,331.731873 233.519897,332.489441 234.067734,334.061768 
	C235.807831,339.056152 237.504395,344.065704 239.239075,349.131500 
	C237.131561,350.687775 235.740524,350.447235 234.356613,348.637299 
	C231.706512,345.171326 228.991058,345.156708 226.456451,348.807159 
	C225.413116,350.309814 224.160919,350.536469 222.306427,349.561707 
	C222.223114,346.609558 223.721802,343.968719 224.656586,340.796509 
z"/>
<path fill="#000000" opacity="1.000000" stroke="none" 
	d="
M153.248413,299.276215 
	C153.320770,302.388763 153.304871,305.047577 153.391876,307.703003 
	C153.459671,309.772430 154.471115,311.351501 156.616577,311.444214 
	C158.889923,311.542419 159.757706,309.866821 159.843964,307.823608 
	C159.942001,305.501495 159.847519,303.170135 159.980148,300.850983 
	C160.080887,299.089447 159.861023,296.824677 162.582184,296.924988 
	C164.920731,297.011169 164.825790,299.054749 164.860214,300.663025 
	C164.913422,303.148865 164.914169,305.656494 164.650894,308.124359 
	C164.041702,313.834717 161.717712,315.815857 156.260788,315.557220 
	C151.383072,315.325989 149.102539,312.918335 148.834579,307.454620 
	C148.704681,304.805817 148.820663,302.141785 148.903992,299.487122 
	C148.942215,298.269775 149.337418,297.148834 150.788605,296.960663 
	C152.169113,296.781677 152.990311,297.433044 153.248413,299.276215 
z"/>
<path fill="#000000" opacity="1.000000" stroke="none" 
	d="
M318.331512,310.289368 
	C322.104828,312.699493 323.529358,310.894379 323.834320,307.582184 
	C324.077759,304.938324 323.925110,302.260406 324.050903,299.602448 
	C324.117737,298.190552 324.620453,296.954803 326.347961,296.886902 
	C328.116333,296.817444 328.617798,298.080383 328.773315,299.464142 
	C329.242096,303.636108 329.062286,307.833923 327.875824,311.831604 
	C326.917480,315.060638 323.832489,315.574951 320.942566,315.657471 
	C318.002533,315.741455 315.201843,315.054962 313.889099,311.986633 
	C312.045502,307.677582 312.821564,303.148285 313.082458,298.687836 
	C313.146393,297.594971 313.941467,296.930389 315.123016,296.935120 
	C316.970886,296.942474 317.129578,298.280365 317.294525,299.657318 
	C317.706207,303.093719 316.580048,306.647461 318.331512,310.289368 
z"/>
<path fill="#000000" opacity="1.000000" stroke="none" 
	d="
M337.803680,308.045532 
	C334.936401,307.090881 332.243195,306.381775 331.414459,303.363068 
	C330.586151,300.345795 331.773041,298.042572 334.572784,296.893402 
	C337.660461,295.626068 340.775665,295.839417 343.448425,298.085236 
	C343.785797,298.368683 343.802612,299.352905 343.609497,299.881531 
	C343.216187,300.958160 342.263123,301.255096 341.166290,301.003357 
	C339.460022,300.611786 337.695343,299.580658 336.156189,301.468567 
	C336.702087,303.978363 338.931732,303.408997 340.515320,303.963165 
	C343.464386,304.995178 345.372009,306.882568 345.263123,310.182465 
	C345.167450,313.081665 343.454742,314.786896 340.693176,315.268677 
	C337.340851,315.853516 334.017487,315.904205 331.512268,312.991852 
	C330.932190,312.317444 330.933105,311.482452 331.403931,310.677002 
	C332.009644,309.640717 332.919434,309.393158 333.950592,309.819000 
	C335.164551,310.320374 336.276215,311.108948 337.519165,311.487640 
	C338.468048,311.776733 339.648590,311.580627 340.033783,310.444061 
	C340.581665,308.827454 339.220642,308.551025 337.803680,308.045532 
z"/>
<path fill="#000000" opacity="1.000000" stroke="none" 
	d="
M371.123169,303.286621 
	C372.379944,303.687836 373.352844,303.862793 374.326935,304.030548 
	C375.733521,304.272736 377.025208,304.782349 376.825592,306.482635 
	C376.660461,307.889404 375.396362,308.273285 374.196991,308.206635 
	C371.219543,308.041199 370.025177,309.439911 370.019409,312.326447 
	C370.016266,313.904572 369.427521,315.358704 367.400757,315.164337 
	C365.286560,314.961578 365.419220,313.350098 365.457581,311.821564 
	C365.519775,309.341553 365.574768,306.860992 365.595825,304.380341 
	C365.663300,296.429321 366.982941,295.352295 374.978668,296.674286 
	C376.163940,296.870270 377.439026,296.973816 377.449677,298.498047 
	C377.460541,300.050079 376.131409,300.008698 374.998291,300.337494 
	C373.385498,300.805542 370.024689,298.846069 371.123169,303.286621 
z"/>
<path fill="#000000" opacity="1.000000" stroke="none" 
	d="
M213.858643,350.682434 
	C213.319016,350.702393 213.151047,350.699585 212.987961,350.669983 
	C210.402679,350.200378 206.751480,350.000641 207.673630,346.421204 
	C208.714386,342.381348 211.418060,347.057159 213.832870,346.022614 
	C216.172684,343.034424 214.688324,338.983978 215.512390,335.395172 
	C215.852554,333.913757 215.036011,331.704468 217.738693,331.840729 
	C219.784775,331.943909 219.914795,333.673981 219.953949,335.156830 
	C220.032898,338.147125 220.118317,341.155243 219.884064,344.131073 
	C219.613190,347.572113 218.094650,350.193573 213.858643,350.682434 
z"/>
<path fill="#000000" opacity="1.000000" stroke="none" 
	d="
M289.810120,350.373657 
	C281.905731,350.355347 281.902161,350.355377 281.867584,343.064209 
	C281.856537,340.738190 281.800232,338.409180 281.895081,336.086884 
	C281.966583,334.335999 281.592316,332.001495 284.238007,331.915314 
	C287.313721,331.815094 286.670258,334.443298 286.871185,336.289551 
	C286.996277,337.439148 287.025635,338.629944 286.875793,339.773163 
	C286.330414,343.933960 286.232605,347.607819 292.253845,346.765747 
	C293.453430,346.597992 294.797516,347.244263 294.434662,348.752747 
	C293.884613,351.039337 291.777832,350.110901 289.810120,350.373657 
z"/>
</svg>